<svg version="1.2" xmlns="http://www.w3.org/2000/svg" viewBox="0 0 64 64" width="64" height="64">
	<title>Bitcoin-svg</title>
	<style>
		.s0 { fill: #ffffff } 
		.s1 { fill: #050505 } 
	</style>
	<g id="Layer">
		<path id="Layer" class="s0" d="m63 39.7c-4.2 17.2-21.6 27.6-38.7 23.3-17.2-4.2-27.6-21.6-23.3-38.7 4.2-17.2 21.6-27.6 38.7-23.3 17.2 4.2 27.6 21.6 23.3 38.7z"/>
		<path id="Layer" fill-rule="evenodd" class="s1" d="m41.6 32.6c3.2 1.6 4.8 4.2 3.3 8.5-1.9 5.4-6.4 5.9-12.4 4.7l-1.5 5.9-3.5-0.9 1.4-5.7q-1.3-0.4-2.8-0.8l-1.4 5.8-3.5-0.9 1.4-5.8q-1.2-0.3-2.5-0.7l-4.5-1.1 1.7-4c0 0 2.6 0.7 2.6 0.6 1 0.3 1.4-0.4 1.6-0.8l2.3-9.2q0.2 0 0.3 0.1-0.2-0.1-0.3-0.1l1.6-6.6c0.1-0.8-0.2-1.7-1.6-2.1 0 0-2.6-0.6-2.6-0.6l1-3.7 4.8 1.2q1.1 0.3 2.2 0.5l1.5-5.8 3.5 0.9-1.4 5.7q1.4 0.3 2.8 0.6l1.4-5.6 3.5 0.9-1.4 5.8c4.4 1.5 7.6 3.8 7 8-0.5 3.2-2.2 4.7-4.5 5.2zm-12.4-0.2l-1.9 7.7c2.4 0.6 9.7 2.9 10.8-1.4 1.1-4.6-6.5-5.7-8.9-6.3zm2.6-10.6l-1.7 7c2 0.5 8.1 2.5 9.1-1.4 1-4.2-5.4-5.1-7.4-5.6z"/>
	</g>
</svg>